<svg id="Capa_1" data-name="Capa 1" xmlns="http://www.w3.org/2000/svg" viewBox="0 0 560.01 585.47"><path d="M379.36,203.72h-174a49.79,49.79,0,0,0-49.65,49.65v91.09a49.79,49.79,0,0,0,49.65,49.64h174A49.79,49.79,0,0,0,429,344.46V253.37A49.79,49.79,0,0,0,379.36,203.72ZM300,325.85l-42.39,26.23V247.17L300,273.39l42.4,26.23Z" fill="#555253" opacity="0.3"/><path d="M354.65,191.37h-174A49.79,49.79,0,0,0,131,241V332.1a49.79,49.79,0,0,0,49.64,49.64h174a49.79,49.79,0,0,0,49.64-49.64V241A49.79,49.79,0,0,0,354.65,191.37ZM275.33,313.49l-42.4,26.23V234.81L275.33,261l42.4,26.23Z" fill="#fff"/></svg>