<svg id="Capa_1" data-name="Capa 1" xmlns="http://www.w3.org/2000/svg" viewBox="0 0 560.01 585.47"><path d="M353,220.11v-38.2s-39.06-.37-41.71-.37c-17.66,0-43,20.09-43,42.87v40.9H231.69v43.37h36.09v107.6h42.71V308.18h37.74L353,265.8H311V234.68c0-7.48,5.62-14.79,14.07-14.79C330.69,219.89,353,220.11,353,220.11Z" fill="#555253" opacity="0.3"/><path d="M328.32,207.76V169.55s-39.07-.37-41.72-.37c-17.65,0-43,20.09-43,42.87V253H207v43.37h36.09V403.93h42.71V295.83h37.74l4.8-42.38H286.27V222.32c0-7.47,5.63-14.78,14.07-14.78C306,207.54,328.32,207.76,328.32,207.76Z" fill="#fff"/></svg>