<svg id="Capa_1" data-name="Capa 1" xmlns="http://www.w3.org/2000/svg" viewBox="0 0 560.01 585.47"><g opacity="0.3"><path d="M342.86,444.36H249.61A75.46,75.46,0,0,1,174.23,369V275.74a75.46,75.46,0,0,1,75.38-75.38h93.25a75.46,75.46,0,0,1,75.37,75.38V369A75.46,75.46,0,0,1,342.86,444.36Zm-93.25-216.8a48.23,48.23,0,0,0-48.18,48.18V369a48.23,48.23,0,0,0,48.18,48.18h93.25A48.24,48.24,0,0,0,391,369V275.74a48.24,48.24,0,0,0-48.18-48.18Z" fill="#555253"/><path d="M296.23,384.72a62.36,62.36,0,1,1,62.36-62.36A62.43,62.43,0,0,1,296.23,384.72Zm0-100.24a37.88,37.88,0,1,0,37.89,37.88A37.93,37.93,0,0,0,296.23,284.48Z" fill="#555253"/><circle cx="361.74" cy="256.37" r="10.54" fill="#555253"/></g><path d="M318.15,432H224.9a75.46,75.46,0,0,1-75.38-75.38V263.38A75.46,75.46,0,0,1,224.9,188h93.25a75.46,75.46,0,0,1,75.37,75.38v93.25A75.46,75.46,0,0,1,318.15,432ZM224.9,215.2a48.23,48.23,0,0,0-48.18,48.18v93.25a48.24,48.24,0,0,0,48.18,48.18h93.25a48.23,48.23,0,0,0,48.17-48.18V263.38a48.23,48.23,0,0,0-48.17-48.18Z" fill="#fff"/><path d="M271.52,372.36A62.36,62.36,0,1,1,333.88,310,62.43,62.43,0,0,1,271.52,372.36Zm0-100.24A37.89,37.89,0,1,0,309.4,310,37.92,37.92,0,0,0,271.52,272.12Z" fill="#fff"/><path d="M347.58,244A10.55,10.55,0,1,1,337,233.47,10.54,10.54,0,0,1,347.58,244Z" fill="#fff"/></svg>