<svg id="Capa_1" data-name="Capa 1" xmlns="http://www.w3.org/2000/svg" viewBox="0 0 560.01 585.47"><g opacity="0.3"><path d="M292.36,417a117.17,117.17,0,0,1-66.81-20.74l-47.83,18.8,16.83-50a118,118,0,1,1,97.81,52ZM227,384.37l2.33,1.69a107.62,107.62,0,1,0-24.69-24.91l1.56,2.18L194.89,397Z" fill="#555253"/><path d="M358.88,328.67a4.84,4.84,0,0,1,1.26,4.09c-1.35,8.73-9,40.75-47.49,27.14-44.37-15.7-76.43-43.29-86.71-80.09s19.35-46.53,25.57-44.37,21.64,29.49,19.48,35.45-12.58,11.63-12.24,17.92c.28,5.33,39.56,44.44,50.72,41.32,7.67-2.13,8.46-14,16-15.35C332.41,313.55,352.18,321.61,358.88,328.67Z" fill="#555253"/></g><path d="M267.65,404.63a117.12,117.12,0,0,1-66.81-20.74L153,402.69l16.83-50a118,118,0,1,1,97.81,52ZM202.31,372l2.33,1.69A107.62,107.62,0,1,0,180,348.79L181.5,351l-11.32,33.67Z" fill="#fff"/><path d="M334.16,316.31a4.86,4.86,0,0,1,1.27,4.1c-1.35,8.72-9,40.74-47.49,27.13-44.37-15.69-76.43-43.29-86.71-80.08s19.35-46.54,25.57-44.37,21.64,29.49,19.48,35.44S233.7,270.16,234,276.45c.29,5.34,39.57,44.44,50.73,41.33,7.67-2.14,8.46-14,16-15.35C307.7,301.19,327.47,309.25,334.16,316.31Z" fill="#fff"/></svg>