<svg id="Capa_1" data-name="Capa 1" xmlns="http://www.w3.org/2000/svg" viewBox="0 0 481 403"><g id="HSy1LF.tif" opacity="0.3"><path d="M98.75,188.18c9.35,4.58,18,7.47,28.3,7.64A72.25,72.25,0,0,1,109.8,177.4c-12.71-20-13.67-40.57-3.45-61.8,1.75-3.62,1.78-3.59,4.47-.49,26.15,30.11,58.48,50,97.51,58.63a158.71,158.71,0,0,0,25.89,3.55c2.37.13,3-.37,2.54-2.85-4.6-27.3,8.37-53.84,32.42-66.6s53.28-8.59,73.3,10.59a4.87,4.87,0,0,0,5.26,1.32,137.85,137.85,0,0,0,33.07-12.56c.81-.44,1.53-1.3,3.15-.83-4.64,14-13.37,24.7-25.42,33,11.51-1.07,22.31-4.42,33.44-8.22-.81,1.25-1.58,2.53-2.44,3.74A121,121,0,0,1,364,161a6.14,6.14,0,0,0-2.8,5.84c2.26,70-39.37,139.17-102.57,166.88C201.44,358.81,145,355.39,90.56,324c-.92-.54-2.09-.82-2.72-2.33,33.52,2.83,63.82-5.15,91.56-26.14-14.05-.73-25.86-4.8-36.23-12.64A63,63,0,0,1,121,252.05c9.14,1,18,1,27.21-1.2C117.53,241.24,101.2,220.8,98.75,188.18Z" fill="#555253"/></g><g id="HSy1LF.tif-2" data-name="HSy1LF.tif"><path d="M78.75,188.18c9.35,4.58,18,7.47,28.3,7.64A72.25,72.25,0,0,1,89.8,177.4c-12.71-20-13.67-40.57-3.45-61.8,1.75-3.62,1.78-3.59,4.47-.49,26.15,30.11,58.48,50,97.51,58.63a158.71,158.71,0,0,0,25.89,3.55c2.37.13,3-.37,2.54-2.85-4.6-27.3,8.37-53.84,32.42-66.6s53.28-8.59,73.3,10.59a4.87,4.87,0,0,0,5.26,1.32,137.85,137.85,0,0,0,33.07-12.56c.81-.44,1.53-1.3,3.15-.83-4.64,14-13.37,24.7-25.42,33,11.51-1.07,22.31-4.42,33.44-8.22-.81,1.25-1.58,2.53-2.44,3.74A121,121,0,0,1,344,161a6.14,6.14,0,0,0-2.8,5.84c2.26,70-39.37,139.17-102.57,166.88C181.44,358.81,125,355.39,70.56,324c-.92-.54-2.09-.82-2.72-2.33,33.52,2.83,63.82-5.15,91.56-26.14-14.05-.73-25.86-4.8-36.23-12.64A63,63,0,0,1,101,252.05c9.14,1,18,1,27.21-1.2C97.53,241.24,81.2,220.8,78.75,188.18Z" fill="#fff"/></g></svg>