<?xml version="1.0" encoding="UTF-8"?>
<svg xmlns="http://www.w3.org/2000/svg" xmlns:xlink="http://www.w3.org/1999/xlink" width="100px" height="105px" viewBox="0 0 100 104" version="1.1">
<g id="surface1">
<path style=" stroke:none;fill-rule:nonzero;fill:rgb(0%,6.27451%,76.078431%);fill-opacity:1;" d="M 49.222656 32.820312 L 50.726562 32.820312 C 51.429688 32.925781 52.144531 32.988281 52.835938 33.140625 C 55.1875 33.644531 57.351562 34.78125 59.097656 36.429688 C 61.148438 38.332031 62.539062 40.828125 63.078125 43.5625 C 63.238281 44.320312 63.257812 45.09375 63.363281 45.855469 L 63.363281 46.386719 C 63.277344 47.078125 63.160156 47.765625 63.007812 48.441406 C 62.40625 50.734375 61.453125 52.882812 60.378906 54.992188 C 57.523438 60.558594 54.066406 65.753906 50.398438 70.8125 C 50.039062 71.3125 49.914062 71.308594 49.546875 70.8125 C 46.703125 66.949219 44.0625 62.9375 41.644531 58.796875 C 39.957031 55.878906 38.398438 52.898438 37.304688 49.695312 C 36.625 47.769531 36.46875 45.695312 36.851562 43.691406 C 37.8125 38.609375 41.644531 34.539062 46.675781 33.25 C 47.515625 33.039062 48.375 32.953125 49.222656 32.820312 Z M 49.984375 50.890625 C 52.625 50.882812 54.761719 48.742188 54.753906 46.113281 C 54.746094 43.480469 52.597656 41.355469 49.953125 41.363281 C 47.3125 41.371094 45.175781 43.507812 45.179688 46.140625 C 45.191406 48.769531 47.339844 50.898438 49.984375 50.890625 Z M 49.984375 50.890625 "/>
</g>
</svg>
