<svg id="Capa_1" data-name="Capa 1" xmlns="http://www.w3.org/2000/svg" viewBox="0 0 560.01 585.47"><path d="M275.65,184.77h8.43c3.94.58,7.94.93,11.81,1.8A73.48,73.48,0,0,1,331,205.09a74.51,74.51,0,0,1,22.31,40.15c.88,4.27,1,8.61,1.59,12.9v3a116.42,116.42,0,0,1-2,11.57c-3.37,12.91-8.7,25-14.73,36.86-16,31.35-35.37,60.59-55.94,89.07-2,2.81-2.71,2.8-4.76,0A762.15,762.15,0,0,1,233.18,331c-9.47-16.42-18.2-33.2-24.32-51.24a64.93,64.93,0,0,1-2.54-33.8,75,75,0,0,1,55.06-58.77C266.09,186,270.89,185.5,275.65,184.77Zm4.26,101.72A26.82,26.82,0,1,0,253,259.74,26.85,26.85,0,0,0,279.91,286.49Z" fill="#0010c2"/></svg>